<svg width="100" height="91" viewBox="0 0 100 91" fill="none" xmlns="http://www.w3.org/2000/svg">
<path d="M36.363 72.726C16.281 72.726 0 56.447 0 36.364C0 16.279 16.281 0 36.363 0C50.011 0 61.886 7.528 68.106 18.646C69.616 18.389 71.147 18.18 72.728 18.18C87.791 18.18 100 30.393 100 45.455C100 60.514 87.791 72.726 72.729 72.726C66.42 72.726 43.633 72.726 36.363 72.726ZM72.729 63.634C82.771 63.634 90.913 55.491 90.913 45.454C90.913 35.413 82.771 27.271 72.729 27.271C69.09 27.271 65.723 28.364 62.877 30.206C60.08 18.123 49.3 9.09 36.363 9.09C21.303 9.09 9.092 21.3 9.092 36.364C9.092 51.426 21.303 63.635 36.363 63.635C44.585 63.634 65.864 63.634 72.729 63.634Z" fill="#65AED5"/>
</svg>
