<svg width="100" height="121" viewBox="0 0 100 121" fill="none" xmlns="http://www.w3.org/2000/svg">
<path d="M72.725 18.179C71.143 18.179 69.614 18.387 68.104 18.645C61.884 7.525 50.009 0 36.362 0C16.281 0 0 16.279 0 36.36C0 49.978 7.501 61.832 18.586 68.059C19.213 65.192 20.613 62.457 22.843 60.229L22.973 60.1C14.69 55.417 9.095 46.547 9.095 36.36C9.095 21.299 21.304 9.089 36.364 9.089C49.3 9.089 60.077 18.122 62.879 30.204C65.72 28.363 69.089 27.27 72.725 27.27C82.767 27.27 90.909 35.409 90.909 45.45C90.909 53.277 85.95 59.931 79.01 62.492C80.801 65.097 81.725 68.107 81.786 71.144C92.391 67.407 100 57.332 100 45.45C99.995 30.389 87.787 18.179 72.725 18.179Z" fill="#65AED5"/>
<path d="M34.089 61.835L29.269 66.656C26.606 69.319 26.606 73.635 29.269 76.298C31.933 78.962 36.248 78.962 38.91 76.298C41.573 73.635 41.573 69.319 38.91 66.656L34.089 61.835Z" fill="#65AED5"/>
<path d="M49.999 80.0139L45.179 84.8349C42.514 87.4979 42.514 91.8179 45.179 94.4769C47.841 97.1409 52.158 97.1409 54.817 94.4769C57.48 91.8189 57.48 87.4979 54.817 84.8349L49.999 80.0139Z" fill="#65AED5"/>
<path d="M65.906 61.835L61.087 66.656C58.422 69.319 58.422 73.635 61.087 76.298C63.749 78.962 68.064 78.962 70.728 76.298C73.391 73.635 73.391 69.319 70.728 66.656L65.906 61.835Z" fill="#65AED5"/>
</svg>
