<svg width="100" height="112" viewBox="0 0 100 112" fill="none" xmlns="http://www.w3.org/2000/svg">
<path d="M96.295 48.1459H88.887C86.842 48.1459 85.183 46.4889 85.183 44.4429C85.183 42.3979 86.842 40.7419 88.887 40.7419H96.295C98.339 40.7419 99.999 42.3999 99.999 44.4429C100 46.4889 98.339 48.1459 96.295 48.1459Z" fill="#65AED5"/>
<path d="M81.744 23.4921C80.297 24.9381 77.953 24.9381 76.506 23.4921C75.059 22.0471 75.059 19.7011 76.506 18.2561L81.744 13.0181C83.19 11.5721 85.535 11.5721 86.981 13.0181C88.428 14.4631 88.428 16.8101 86.981 18.2561L81.744 23.4921Z" fill="#65AED5"/>
<path d="M76.285 52.3959C77.232 49.9249 77.775 47.2489 77.779 44.4429C77.779 32.1729 67.828 22.2209 55.553 22.2209C48.411 22.2209 42.072 25.6049 38.006 30.8399C35.353 30.0589 32.541 29.6299 29.629 29.6299C13.266 29.6299 0 42.8949 0 59.2579C0 75.6229 13.266 88.8879 29.629 88.8879C35.55 88.8879 54.12 88.8879 59.257 88.8879C71.531 88.8879 81.483 78.9369 81.483 66.6659C81.483 61.2319 79.526 56.2589 76.285 52.3959ZM55.553 29.6299C63.736 29.6299 70.37 36.2639 70.37 44.4429C70.37 45.4119 70.268 46.3549 70.091 47.2709C66.887 45.4779 63.194 44.4429 59.257 44.4429C57.968 44.4429 56.722 44.6129 55.491 44.8229C53.003 40.3749 49.4 36.6399 45.067 33.9799C47.747 31.2929 51.456 29.6299 55.553 29.6299ZM59.257 81.4799C53.665 81.4799 36.324 81.4799 29.627 81.4799C17.354 81.4799 7.406 71.5319 7.406 59.2579C7.406 46.9839 17.354 37.0379 29.627 37.0379C40.168 37.0379 48.952 44.3959 51.231 54.2419C53.546 52.7439 56.293 51.8499 59.257 51.8499C67.44 51.8499 74.07 58.4849 74.07 66.6659C74.071 74.8459 67.44 81.4799 59.257 81.4799Z" fill="#65AED5"/>
<path d="M55.553 14.813C53.508 14.813 51.849 13.155 51.849 11.111V3.704C51.849 1.658 53.509 0 55.553 0C57.599 0 59.257 1.658 59.257 3.704V11.111C59.257 13.157 57.601 14.813 55.553 14.813Z" fill="#65AED5"/>
<path d="M29.365 23.4921L24.129 18.2561C22.682 16.8101 22.682 14.4631 24.129 13.0181C25.573 11.5721 27.92 11.5721 29.365 13.0181L34.602 18.2561C36.049 19.7011 36.049 22.0471 34.602 23.4921C33.158 24.9381 30.811 24.9381 29.365 23.4921Z" fill="#65AED5"/>
</svg>
