<svg width="100" height="125" viewBox="0 0 100 125" fill="none" xmlns="http://www.w3.org/2000/svg">
<path d="M95.833 54.165H87.503C85.201 54.165 83.335 52.299 83.335 50C83.335 47.7 85.201 45.833 87.503 45.833H95.833C98.134 45.833 100 47.7 100 50C100 52.299 98.139 54.165 95.833 54.165Z" fill="#65AED5"/>
<path d="M79.468 26.431C77.84 28.057 75.197 28.057 73.574 26.431C71.947 24.804 71.947 22.166 73.574 20.538L79.468 14.646C81.089 13.019 83.733 13.019 85.361 14.646C86.982 16.273 86.982 18.911 85.361 20.538L79.468 26.431Z" fill="#65AED5"/>
<path d="M50.002 24.999C36.192 24.999 24.999 36.192 24.999 50C24.999 63.806 36.194 74.999 50.002 74.999C63.81 74.999 75.001 63.806 75.001 50C75.001 36.192 63.81 24.999 50.002 24.999ZM50.002 66.667C40.799 66.667 33.334 59.203 33.334 50C33.334 40.795 40.797 33.333 50.002 33.333C59.207 33.333 66.667 40.795 66.667 50C66.667 59.203 59.205 66.667 50.002 66.667Z" fill="#65AED5"/>
<path d="M50.002 16.667C47.7 16.667 45.835 14.8 45.835 12.5V4.167C45.835 1.867 47.7 0 50.002 0C52.304 0 54.169 1.867 54.169 4.167V12.5C54.169 14.8 52.299 16.667 50.002 16.667Z" fill="#65AED5"/>
<path d="M20.538 26.431L14.646 20.538C13.019 18.912 13.019 16.273 14.646 14.646C16.273 13.019 18.911 13.019 20.538 14.646L26.431 20.538C28.057 22.166 28.057 24.804 26.431 26.431C24.804 28.057 22.166 28.057 20.538 26.431Z" fill="#65AED5"/>
<path d="M16.667 50C16.667 52.299 14.8 54.165 12.5 54.165H4.165C1.865 54.165 0 52.299 0 50C0 47.7 1.867 45.833 4.165 45.833H12.5C14.802 45.833 16.667 47.7 16.667 50Z" fill="#65AED5"/>
<path d="M20.538 73.5701C22.166 71.9441 24.804 71.9441 26.431 73.5701C28.057 75.1961 28.057 77.8351 26.431 79.4631L20.538 85.3541C18.912 86.9821 16.273 86.9821 14.646 85.3541C13.019 83.7291 13.019 81.0891 14.646 79.4631L20.538 73.5701Z" fill="#65AED5"/>
<path d="M50.002 83.333C52.304 83.333 54.169 85.197 54.169 87.498V95.833C54.169 98.134 52.304 100 50.002 100C47.7 100 45.835 98.134 45.835 95.833V87.498C45.835 85.197 47.7 83.333 50.002 83.333Z" fill="#65AED5"/>
<path d="M79.468 73.5701L85.361 79.4631C86.982 81.0891 86.982 83.7291 85.361 85.3541C83.733 86.9821 81.09 86.9821 79.468 85.3541L73.574 79.4631C71.947 77.8351 71.947 75.1961 73.574 73.5701C75.196 71.9421 77.835 71.9421 79.468 73.5701Z" fill="#65AED5"/>
</svg>
