<svg width="100" height="86" viewBox="0 0 100 86" fill="none" xmlns="http://www.w3.org/2000/svg">
<g clip-path="url(#clip0)">
<path d="M2.66795 49.9969C2.07295 48.5299 1.59395 47.0099 1.19495 45.4509H99.9999C99.9999 47.0069 99.8429 48.5159 99.5899 49.9969H2.66795Z" fill="#65AED5"/>
<path d="M18.775 4.543C23.989 1.655 29.98 0 36.362 0C42.74 0 48.718 1.659 53.926 4.543H18.775Z" fill="#65AED5"/>
<path d="M0.31604 31.8159C0.50904 30.2659 0.81104 28.7539 1.19504 27.2729H93.012C94.266 28.6659 95.373 30.1839 96.319 31.8159H0.31604Z" fill="#65AED5"/>
<path d="M2.66797 22.7269C3.30697 21.1519 4.06197 19.6389 4.90497 18.1809H67.824C67.915 18.3349 68.014 18.4879 68.103 18.6469C69.613 18.3869 71.146 18.1809 72.724 18.1809C78.295 18.1809 83.474 19.8579 87.786 22.7269H2.66797Z" fill="#65AED5"/>
<path d="M8.00305 13.6351C9.32105 11.9911 10.7881 10.4801 12.3671 9.08911H60.3771C61.9441 10.4751 63.392 11.9981 64.701 13.6351H8.00305V13.6351Z" fill="#65AED5"/>
<path d="M99.585 40.905H0.316C0.13 39.414 0 37.904 0 36.364H98.413C98.928 37.824 99.325 39.342 99.585 40.905Z" fill="#65AED5"/>
<path d="M98.413 54.542C97.853 56.132 97.152 57.649 96.319 59.088H8.00303C6.85603 57.658 5.82803 56.136 4.90503 54.542H98.413Z" fill="#65AED5"/>
<path d="M12.3669 63.634H93.0109C91.4659 65.357 89.721 66.895 87.785 68.18H18.7749C16.4649 66.902 14.3329 65.361 12.3669 63.634Z" fill="#65AED5"/>
</g>
<defs>
<clipPath id="clip0">
<rect width="100" height="85.225" fill="white"/>
</clipPath>
</defs>
</svg>
