<svg width="100" height="125" viewBox="0 0 100 125" fill="none" xmlns="http://www.w3.org/2000/svg">
<g clip-path="url(#clip0)">
<path d="M81.818 71.14V61.183C87.248 58.037 90.91 52.18 90.91 45.454C90.91 35.413 82.768 27.272 72.726 27.272C69.088 27.272 65.721 28.363 62.875 30.206C60.079 18.121 49.299 9.09 36.363 9.09C21.302 9.09 9.092 21.3 9.092 36.361C9.092 44.428 12.618 51.653 18.184 56.646V67.82C7.326 61.528 0 49.813 0 36.361C0 16.279 16.281 0 36.363 0C50.01 0 61.886 7.526 68.105 18.646C69.614 18.389 71.146 18.18 72.726 18.18C87.788 18.18 99.997 30.391 99.997 45.454C99.998 57.324 92.406 67.394 81.818 71.14Z" fill="#65AED5"/>
<path d="M31.819 45.4541C34.329 45.4541 36.363 47.4921 36.363 50.0001V86.3631C36.363 88.8761 34.329 90.9091 31.819 90.9091C29.31 90.9091 27.273 88.8761 27.273 86.3631V50.0001C27.273 47.4911 29.31 45.4541 31.819 45.4541Z" fill="#65AED5"/>
<path d="M50 54.5459C52.509 54.5459 54.547 56.5809 54.547 59.0919V95.4539C54.548 97.9649 52.51 99.9999 50 99.9999C47.49 99.9999 45.454 97.9649 45.454 95.4539V59.0919C45.455 56.5789 47.491 54.5459 50 54.5459Z" fill="#65AED5"/>
<path d="M68.181 45.4541C70.692 45.4541 72.727 47.4921 72.727 50.0001V86.3631C72.727 88.8761 70.692 90.9091 68.181 90.9091C65.673 90.9091 63.635 88.8761 63.635 86.3631V50.0001C63.635 47.4911 65.673 45.4541 68.181 45.4541Z" fill="#65AED5"/>
</g>
<defs>
<clipPath id="clip0">
<rect width="99.998" height="125" fill="white"/>
</clipPath>
</defs>
</svg>
