<svg width="100" height="108" viewBox="0 0 100 108" fill="none" xmlns="http://www.w3.org/2000/svg">
<path d="M77.271 72.326V63.047C85.107 61.023 90.91 53.929 90.91 45.458C90.91 35.419 82.767 27.277 72.728 27.277C69.089 27.277 65.717 28.368 62.876 30.212C60.078 18.125 49.3 9.092 36.364 9.092C21.301 9.092 9.09 21.305 9.09 36.369C9.09 46.457 14.584 55.247 22.726 59.962V70.064C9.406 64.665 0 51.624 0 36.366C0 16.284 16.28 0 36.364 0C50.011 0 61.888 7.528 68.106 18.648C69.616 18.39 71.143 18.182 72.728 18.182C87.789 18.182 100 30.396 100 45.453C100 58.971 90.166 70.155 77.271 72.326Z" fill="#65AED5"/>
<path d="M64.082 71.0689L59.09 68.1879L64.082 65.3039C66.253 64.0499 66.999 61.2709 65.742 59.0949C64.49 56.9199 61.712 56.1789 59.536 57.4309L54.546 60.3119V54.5489C54.546 52.0409 52.509 50.0029 50 50.0029C47.491 50.0029 45.454 52.0409 45.454 54.5489V60.3119L40.463 57.4329C38.288 56.1789 35.509 56.9199 34.252 59.0949C33 61.2709 33.744 64.0499 35.919 65.3059L40.908 68.1879L35.919 71.0739C33.744 72.3279 33 75.1089 34.255 77.2849C35.509 79.4559 38.289 80.1989 40.464 78.9429L45.453 76.0589V81.8219C45.453 84.3349 47.49 86.3679 49.999 86.3679C52.508 86.3679 54.545 84.3349 54.545 81.8219V76.0589L59.535 78.9379C61.711 80.1949 64.487 79.4509 65.741 77.2799C66.999 75.1039 66.253 72.3259 64.082 71.0689ZM50 72.7339C47.491 72.7339 45.454 70.6959 45.454 68.1879C45.454 65.6769 47.491 63.6419 50 63.6419C52.509 63.6419 54.546 65.6769 54.546 68.1879C54.546 70.6989 52.509 72.7339 50 72.7339Z" fill="#65AED5"/>
</svg>
