<svg width="100" height="125" viewBox="0 0 100 125" fill="none" xmlns="http://www.w3.org/2000/svg">
<g clip-path="url(#clip0)">
<path d="M72.724 72.729C72.087 72.729 71.247 72.729 70.311 72.729L78.457 62.701C85.688 60.299 90.907 53.489 90.907 45.453C90.907 35.412 82.767 27.275 72.725 27.275C69.085 27.275 65.717 28.366 62.876 30.207C60.078 18.125 49.298 9.092 36.363 9.092C21.302 9.092 9.092 21.302 9.092 36.367C9.092 48.745 17.348 59.184 28.649 62.514L25.582 71.1C10.762 66.505 0 52.694 0 36.365C0 16.284 16.281 0 36.363 0C50.009 0 61.885 7.528 68.105 18.648C69.614 18.388 71.146 18.182 72.726 18.182C87.788 18.182 99.999 30.39 99.999 45.454C99.999 60.517 87.786 72.729 72.724 72.729Z" fill="#65AED5"/>
<path d="M45.453 40.908H68.178L54.542 63.638H70.45L40.907 100L49.089 72.729H34.088L45.453 40.908Z" fill="#65AED5"/>
</g>
<defs>
<clipPath id="clip0">
<rect width="99.999" height="125" fill="white"/>
</clipPath>
</defs>
</svg>
